<?xml version="1.0" encoding="utf-8"?>
<!-- Generator: Adobe Illustrator 17.1.0, SVG Export Plug-In . SVG Version: 6.00 Build 0)  -->
<!DOCTYPE svg PUBLIC "-//W3C//DTD SVG 1.1//EN" "http://www.w3.org/Graphics/SVG/1.1/DTD/svg11.dtd">
<svg version="1.1" id="Layer_1" xmlns="http://www.w3.org/2000/svg" xmlns:xlink="http://www.w3.org/1999/xlink" x="0px" y="0px"
	 viewBox="109.4 687.7 595.3 598.8" style="enable-background:new 109.4 687.7 595.3 598.8;" xml:space="preserve">
<g>
	<g>
		<g>
			<path d="M653.6,744.5h-40.5v67.8c0,8.6-6.8,15.6-15,15.6c-8.3,0-15-7-15-15.6v-67.8h-17.3v67.8c0,8.6-6.8,15.6-15,15.6
				s-15-7-15-15.6v-67.8H278.3v67.8c0,8.6-6.8,15.6-15,15.6c-8.3,0-15-7-15-15.6v-67.8h-18v67.8c0,8.6-6.8,15.6-15,15.6
				s-15-7-15-15.6v-67.8h-18h-21.8c-28.5,0-51,24.2-51,53v436.1c0,29.6,23.3,53,51,53h493.2c28.5,0,51-24.2,51-53V797.5
				C704.7,767.9,681.4,744.5,653.6,744.5z"/>
		</g>
	</g>
	<g>
		<g>
			<path d="M613.1,703.3c0-8.6-6.8-15.6-15-15.6c-8.3,0-15,7-15,15.6v41.3h30L613.1,703.3L613.1,703.3z"/>
		</g>
	</g>
	<g>
		<g>
			<path d="M565.8,703.3c0-8.6-6.8-15.6-15-15.6s-15,7-15,15.6v41.3h30L565.8,703.3L565.8,703.3z"/>
		</g>
	</g>
	<g>
		<g>
			<path d="M278.3,703.3c0-8.6-6.8-15.6-15-15.6c-8.3,0-15,7-15,15.6v41.3h30L278.3,703.3L278.3,703.3z"/>
		</g>
	</g>
	<g>
		<g>
			<path d="M230.3,703.3c0-8.6-6.8-15.6-15-15.6s-15,7-15,15.6v41.3h30L230.3,703.3L230.3,703.3z"/>
		</g>
	</g>
</g>
</svg>
