<?xml version="1.0" encoding="utf-8"?>
<!-- Generator: Adobe Illustrator 17.1.0, SVG Export Plug-In . SVG Version: 6.00 Build 0)  -->
<!DOCTYPE svg PUBLIC "-//W3C//DTD SVG 1.1//EN" "http://www.w3.org/Graphics/SVG/1.1/DTD/svg11.dtd">
<svg version="1.1" id="Layer_1" xmlns="http://www.w3.org/2000/svg" xmlns:xlink="http://www.w3.org/1999/xlink" x="0px" y="0px"
	 viewBox="150.1 757.9 595.2 496.1" style="enable-background:new 150.1 757.9 595.2 496.1;" xml:space="preserve">
<g>
	<path d="M449.3,797.5H460c166,0.1,221,0.1,234.3,0.5c3.8,1.3,5.7,2.9,7,4.4c2.1,2.3,3.4,4.7,4.4,7.6l0.1,139.9
		c0,85.2,0,134.1-0.3,144.5c-1.3,5.9-6,10.8-11.6,12.4c-9,0.1-43.2,0.3-160.9,0.3H370.5H354l-11.6,11.6l-24,24l-0.1,0.1l-0.1,0.1
		c-8.5,8.6-21.6,21.7-33.8,34l-0.2-29.9l-0.2-38.7l-38.6-0.8l-6.9-0.1c-2.8-0.1-7.1-0.1-12.5-0.2c-3.9,0-8.2-0.1-12.1-0.1h-0.1h-0.1
		c-2.8,0-8.8-0.1-11.7-0.2c-4.2-1.3-5.6-2.5-7.7-4.8l-0.2-0.3l-0.2-0.3c-1.1-1.1-2.2-2.3-3.5-6c-0.3-13.5-0.3-63.8-0.3-143.6V809.9
		c1.9-6.2,6-10.3,11.8-11.9c12.3-0.3,69.4-0.4,220.2-0.5H449.3 M449.3,757.9c-210.1,0.1-250.1,0.1-253.1,0.7
		c-21.9,4-39,19.7-44.9,41.7l-1.2,4.6v147.3c0,121,0.1,147.9,0.6,150c2.8,11.4,7.1,19.8,14.5,27.4c7.8,8.3,15.9,12.9,27.4,16.2
		c3.3,0.9,5.1,1,20.4,1.2c9.3,0.1,20.1,0.1,24.1,0.3l7.2,0.1l0.3,48.6c0.3,54.7,0,50.4,3.9,54.4c2.5,2.6,5.7,3.8,9,3.8
		c2.5,0,5.1-0.7,7.3-2.2c1-0.7,14.4-13.8,29.8-29.2c15.3-15.3,38.7-38.7,51.7-51.9l24-24h162.6c106.2,0,163.6-0.1,165.5-0.4
		c24-3.9,43.2-23.4,46.5-47.5c0.4-2.7,0.4-43.4,0.4-148.9l-0.1-145.2l-1.2-4.5c-2.7-9.6-7.2-17.8-13.6-24.7
		c-7.5-8.1-17.1-13.6-29.1-16.8C698.7,758.1,680.1,758.1,449.3,757.9L449.3,757.9z"/>
</g>
</svg>
