<?xml version="1.0" encoding="utf-8"?>
<!-- Generator: Adobe Illustrator 17.1.0, SVG Export Plug-In . SVG Version: 6.00 Build 0)  -->
<!DOCTYPE svg PUBLIC "-//W3C//DTD SVG 1.1//EN" "http://www.w3.org/Graphics/SVG/1.1/DTD/svg11.dtd">
<svg version="1.1" id="Layer_1" xmlns="http://www.w3.org/2000/svg" xmlns:xlink="http://www.w3.org/1999/xlink" x="0px" y="0px"
	 viewBox="109.5 930.8 595.3 599" style="enable-background:new 109.5 930.8 595.3 599;" xml:space="preserve">
<g>
	<g>
		<g>
			<path style="fill:#25C5F9;" d="M653.7,987.6h-40.5v67.8c0,8.6-6.8,15.6-15,15.6c-8.3,0-15-7-15-15.6v-67.8h-17.3v67.8
				c0,8.6-6.8,15.6-15,15.6s-15-7-15-15.6v-67.8H278.3v67.8c0,8.6-6.8,15.6-15,15.6c-8.3,0-15-7-15-15.6v-67.8h-18v67.8
				c0,8.6-6.8,15.6-15,15.6c-8.2,0-15-7-15-15.6v-67.8h-18h-21.8c-28.5,0-51,24.2-51,53v436.2c0,29.6,23.3,53,51,53h493.3
				c28.5,0,51-24.2,51-53v-436.2C704.8,1011,681.5,987.6,653.7,987.6z"/>
		</g>
	</g>
	<g>
		<g>
			<path style="fill:#25C5F9;" d="M613.2,946.4c0-8.6-6.8-15.6-15-15.6c-8.3,0-15,7-15,15.6v41.3h30V946.4L613.2,946.4z"/>
		</g>
	</g>
	<g>
		<g>
			<path style="fill:#25C5F9;" d="M565.9,946.4c0-8.6-6.8-15.6-15-15.6s-15,7-15,15.6v41.3h30V946.4L565.9,946.4z"/>
		</g>
	</g>
	<g>
		<g>
			<path style="fill:#25C5F9;" d="M278.3,946.4c0-8.6-6.8-15.6-15-15.6c-8.3,0-15,7-15,15.6v41.3h30V946.4L278.3,946.4z"/>
		</g>
	</g>
	<g>
		<g>
			<path style="fill:#25C5F9;" d="M230.3,946.4c0-8.6-6.8-15.6-15-15.6c-8.2,0-15,7-15,15.6v41.3h30V946.4L230.3,946.4z"/>
		</g>
	</g>
</g>
</svg>
