<?xml version="1.0" encoding="utf-8"?>
<!-- Generator: Adobe Illustrator 17.1.0, SVG Export Plug-In . SVG Version: 6.00 Build 0)  -->
<!DOCTYPE svg PUBLIC "-//W3C//DTD SVG 1.1//EN" "http://www.w3.org/Graphics/SVG/1.1/DTD/svg11.dtd">
<svg version="1.1" id="Layer_1" xmlns="http://www.w3.org/2000/svg" xmlns:xlink="http://www.w3.org/1999/xlink" x="0px" y="0px"
	 viewBox="28.7 467.3 595.3 658.3" style="enable-background:new 28.7 467.3 595.3 658.3;" xml:space="preserve">
<path d="M266.9,924.3c-4.1,0-8.3-1.3-11.9-3.9c-9.2-6.6-11.3-19.4-4.7-28.7l55.6-77.8V705.1c0-11.3,9.2-20.6,20.5-20.6
	c11.3,0,20.5,9.2,20.5,20.6v115.4c0,4.3-1.3,8.5-3.8,12l-59.5,83.2C279.5,921.3,273.2,924.3,266.9,924.3z"/>
<path d="M49.2,627.6c-4.1,0-8.3-1.2-11.9-3.8c-9.2-6.6-11.3-19.4-4.8-28.7C78.8,530.2,146.1,485,222.1,467.9
	c11-2.5,22,4.5,24.5,15.6c2.5,11.1-4.5,22.1-15.5,24.6c-66.1,14.8-124.8,54.2-165.2,111C61.9,624.7,55.5,627.6,49.2,627.6z"/>
<path d="M603.5,627.6c-6.4,0-12.7-3-16.7-8.6c-40.4-56.7-99-96.1-165.2-110.9c-11.1-2.5-18-13.5-15.5-24.6
	c2.5-11.1,13.3-18,24.5-15.6c76,17,143.3,62.2,189.6,127.2c6.6,9.2,4.5,22.1-4.8,28.7C611.7,626.4,607.6,627.6,603.5,627.6z"/>
<path d="M326.3,1088.6c-148,0-268.5-120.8-268.5-269.3s120.4-269.3,268.5-269.3s268.5,120.8,268.5,269.3S474.4,1088.6,326.3,1088.6z
	 M326.3,591.3c-125.4,0-227.5,102.4-227.5,228.2s102.1,228.2,227.5,228.2s227.5-102.4,227.5-228.2
	C553.8,693.5,451.8,591.3,326.3,591.3z"/>
<path d="M125.6,1125.6c-3.4,0-6.7-0.8-9.9-2.6c-9.9-5.5-13.5-18-8.1-27.9l48.8-88.9c5.4-9.9,18-13.5,27.8-8.1
	c9.9,5.5,13.5,18,8.1,27.9l-48.8,88.9C139.8,1121.7,132.8,1125.6,125.6,1125.6z"/>
<path d="M527.1,1125.6c-7.2,0-14.2-3.9-18-10.6l-48.8-88.9c-5.5-9.9-1.9-22.4,8.1-27.9c9.9-5.5,22.4-1.9,27.8,8.1l48.8,88.9
	c5.5,9.9,1.8,22.5-8.1,27.9C533.8,1124.7,530.4,1125.6,527.1,1125.6z"/>
</svg>
